<?xml version="1.0"?>
<svg version="1.1" xmlns="http://www.w3.org/2000/svg" width="100px" height="100px" style=""><path fill="#c7325c" d="M51.072265625,43.478515625q0-0.28125,0.2021484375-0.4658203125t0.474609375-0.2900390625t0.59765625-0.140625t0.5712890625-0.03515625q0.509765625,0,1.0810546875,0.140625t0.8525390625,0.615234375q0.509765625,0.861328125,0.7470703125,2.0478515625t0.4482421875,2.2763671875q0.31640625,1.51171875,0.80859375,3.1640625t1.0283203125,3.3662109375t1.0986328125,3.3662109375t0.984375,3.09375q0.509765625-2.126953125,0.9404296875-4.359375t0.826171875-4.46484375t0.826171875-4.46484375t0.9404296875-4.376953125q0.10546875-0.509765625,0.158203125-1.283203125t0.2197265625-1.494140625t0.4833984375-1.2392578125t0.966796875-0.5185546875q0.685546875,0,0.9228515625,0.3779296875t0.2373046875,1.0986328125q-0.17578125,1.986328125-0.5712890625,3.9375t-0.7294921875,3.90234375q-0.474609375,2.408203125-1.0283203125,4.8251953125t-1.037109375,4.8427734375t-0.826171875,4.8603515625t-0.4130859375,4.8779296875q0.03515625,0.10546875,0.10546875,0.24609375t0.0703125,0.2109375q0,0.2109375-0.193359375,0.3955078125t-0.4833984375,0.31640625t-0.6328125,0.2021484375t-0.6416015625,0.0703125q-0.28125,0-0.6416015625-0.03515625t-0.720703125-0.1318359375t-0.6328125-0.2548828125t-0.3427734375-0.404296875q-0.28125-0.826171875-0.5185546875-1.6083984375t-0.4482421875-1.6083984375q-1.001953125-3.603515625-2.1005859375-7.0751953125t-2.0302734375-7.0576171875q-0.439453125-1.6171875-0.6591796875-3.1728515625t-0.7119140625-3.0673828125q0.0703125,0.140625,0.0703125,0.228515625q-0.0703125-0.24609375-0.140625-0.4658203125t-0.158203125-0.4833984375q0,0.0703125,0.017578125,0.087890625t0.017578125,0.052734375q0-0.03515625-0.017578125-0.052734375t-0.017578125-0.052734375z M70.08599609375,62.392578125q0-3.814453125,0.3427734375-7.6376953125t1.4326171875-7.5322265625q0.31640625-1.107421875,0.826171875-2.1884765625t1.248046875-1.9248046875t1.7578125-1.37109375t2.42578125-0.52734375l0.369140625,0.03515625q1.51171875,0.2109375,2.232421875,1.2216796875t0.720703125,2.5224609375q0,0.404296875-0.0966796875,1.0107421875t-0.3076171875,1.1689453125t-0.5712890625,0.9580078125t-0.9052734375,0.3955078125q-0.24609375-0.03515625-0.4482421875-0.087890625t-0.3779296875-0.228515625q0.28125-0.615234375,0.5009765625-1.283203125t0.2197265625-1.529296875q0-0.31640625-0.052734375-0.80859375t-0.2021484375-0.9755859375t-0.3955078125-0.84375t-0.685546875-0.3603515625q-1.107421875,0-1.86328125,1.2392578125t-1.265625,3.1640625t-0.755859375,4.25390625t-0.3779296875,4.5t-0.1494140625,3.919921875t-0.017578125,2.4697265625q0,0.84375-0.017578125,1.86328125l0,0.228515625q0.017578125,0.896484375,0.123046875,1.705078125q0.140625,0.9140625,0.544921875,1.58203125t1.265625,0.7734375q0.263671875,0.03515625,0.509765625,0.03515625q1.01953125,0,1.845703125-0.580078125q1.01953125-0.720703125,1.810546875-1.8720703125t1.40625-2.53125t1.1337890625-2.6103515625t1.0107421875-2.0390625t1.01953125-0.80859375q0.17578125,0,0.52734375,0.0703125t0.3515625,0.333984375q0,0.0703125-0.03515625,0.193359375t-0.087890625,0.193359375q-0.474609375,1.86328125-1.2041015625,3.8671875t-1.86328125,3.6474609375t-2.77734375,2.6806640625t-3.9462890625,1.037109375q-1.65234375,0-2.6806640625-0.6240234375t-1.58203125-1.669921875t-0.755859375-2.3642578125t-0.2021484375-2.671875z M88.8184765625,64.66015625q0-0.615234375,0.421875-0.7822265625t0.9140625-0.1669921875q0.861328125,0,1.458984375,0.7734375t1.1337890625,1.6962890625t1.0634765625,1.6962890625t1.248046875,0.7734375q0.544921875,0,0.9931640625-0.2724609375t0.7734375-0.685546875t0.5009765625-0.931640625t0.17578125-1.0283203125q0-1.3359375-0.5361328125-2.759765625t-1.37109375-2.935546875t-1.7666015625-3.09375t-1.7578125-3.216796875t-1.37109375-3.3310546875t-0.544921875-3.4189453125q0-2.583984375,1.546875-4.0078125t4.078125-1.423828125q0.861328125,0,1.740234375,0.24609375t1.6171875,0.73828125t1.2041015625,1.212890625t0.4658203125,1.6875q0,0.31640625-0.4658203125,0.4130859375t-0.6767578125,0.0966796875q-0.31640625,0-0.685546875-0.0791015625t-0.474609375-0.4306640625t-0.298828125-0.80859375t-0.4833984375-0.8525390625t-0.685546875-0.685546875t-0.8701171875-0.2900390625q-0.791015625,0-1.3447265625,0.3251953125t-0.896484375,0.8701171875t-0.509765625,1.2216796875t-0.1669921875,1.3974609375q0,1.6875,0.580078125,3.4013671875t1.44140625,3.41015625t1.8720703125,3.3486328125t1.8720703125,3.216796875t1.44140625,3.05859375t0.580078125,2.830078125q0,1.1953125-0.5625,2.021484375t-1.423828125,1.3447265625t-1.9072265625,0.755859375t-2.0478515625,0.2373046875q-1.072265625,0-2.197265625-0.4306640625t-2.021484375-1.1865234375t-1.4765625-1.7666015625t-0.580078125-2.1884765625z"/><path fill="#5232c7" d=""/></svg>
